<svg version="1" xmlns="http://www.w3.org/2000/svg" width="682.667" height="682.667" viewBox="0 0 512.000000 512.000000"><path d="M187.5 85.2c-6.5 2.3-10.6 8.9-9.4 15.3.4 2.2 1.1 6.7 1.4 10 .4 3.3.9 6.3 1.1 6.7.3.5-14.2.8-32.1.8-30.7 0-32.8.1-36.5 2-7.2 3.7-9.8 13.9-5.2 21 4.3 6.8 7 7.2 45.7 7.2 30.3-.1 33.1.1 33.1 1.6.2 4.3 4.3 17.1 7.4 23.2 2.3 4.4 7.8 7.4 13.3 7.2 8.9-.4 14.3-7.6 13.4-17.9-.2-3.2-1.2-7.7-2-10.1l-1.5-4.2 18.7-.1c10.2 0 29.5-.1 42.9-.3 16.3-.1 24.2.1 24.3.9.2 1.2.2.8-.6 7.1-1.5 11.6-1.3 15 .9 18.9 2.3 4.2 7.8 7.6 12.3 7.7 1.6.1 4.9-.8 7.5-2 4.5-2 4.7-2.3 6.9-9.4 1.2-4 2.7-10.7 3.5-14.8.7-4.1 1.3-7.6 1.4-7.6 0-.1 15.5-.2 34.5-.2 41.5-.1 43-.4 47.3-8.8 3.7-7.2 1.4-15.3-5.3-19.1-3.9-2.2-4.5-2.3-38.1-2.3h-34.1l.8-4.8c1.2-8.1.5-18.4-1.5-21.8-3.5-5.8-13.2-8.2-19.6-4.9-1.7.9-3.8 3.2-4.9 5.3-2.1 4-5 18-4.7 22.4.1 1.7-.3 2.8-1.3 3-.9.2-22.9.3-49 .3h-47.4l-.3-3c-.3-2.8-1.6-11.4-1.9-12.5-.1-.3-.7-2.5-1.4-4.8-2.1-7.3-3.3-9.3-7.3-11.3-4.1-2.1-7.7-2.3-12.3-.7zM389.8 186.6c-.2.1-26.8.4-59.1.5-51.3.2-59.3.4-62 1.8-5.7 2.8-6.2 5.3-6 27.6.3 41.1.3 94.2-.1 100.5-1.4 22.8-1.8 27.4-3.5 39.5-2.1 14.3-7.9 32.5-15.8 49.3-5.5 11.5-4.7 18.9 2.4 23.6 5.8 3.9 9.8 4.1 16.3.8 5.1-2.6 5.8-3.3 9.7-11.2 8.8-17.8 13.4-34.4 17.9-64.9 1.4-9.6 2.7-17.7 2.9-18 .4-.7 79.3-.7 79.9 0 .7.7 1.2 54.9.6 54.9-.4 0-3.2-1.4-6.3-3-9.5-5.2-17.6-3.5-21.7 4.5-4.9 9.6-1.6 16.3 13 26.4 16 11.1 29 15.2 37.3 11.7 6.6-2.7 6.9-4 8.3-42.6 1.1-31.4 2.6-119 2.8-164.5.1-26.1 0-28.2-1.8-31.2-1.1-1.8-3.2-3.7-4.7-4.3-2.5-1.1-9.5-2.1-10.1-1.4zm-13.2 44.6l.1 13.8-3.6.1h-73.2l-6.6-.1v-3.8c-.1-2-.2-7.3-.3-11.7-.1-4.4-.1-8.9-.1-10 .1-2 .5-2.1 41.9-2h41.7l.1 13.7zm-.3 46.8c-.1 1.4-.5 7.2-.8 13-.4 5.8-.8 11.4-.9 12.5-.1 2-.8 2-40.1 2h-40l-.1-3.5c-.7-15.5-.7-24.7-.2-25.5.5-.8 14-1.1 41.5-1h40.8l-.2 2.5zM198.6 199.7c-.1.2-17.4.3-38.3.3-31.5.1-38.4.4-40.1 1.6-4.6 3.2-5.4 12.1-3.8 42.9.4 8.2.9 19.4 1.1 24.8.2 5.3.7 14.3.9 20 .3 5.6.8 16 1.1 23.2.3 7.1.7 16.4 1 20.5.2 4.1.7 13.8 1 21.5.7 15.2 1.2 19.6 2.4 20.8.4.4 2.8 1.4 5.2 2.1 4.9 1.5 6 1.5 61.9-1 7.4-.3 17.8-.7 23-.9 13.1-.3 18.8-3 20.3-9.6.9-3.7 2.2-42.1 3.3-95.4 1-54.8 1-59.8.1-63.8-1.6-6.5-3.6-7.2-22.5-7.2-9 0-16.5.1-16.6.2zm10.2 48.6l.4 17.8-22.9-.5c-12.5-.3-26.5-.6-31.1-.7-5.2-.1-8.5-.6-8.7-1.3-.5-1.3-1.3-32.5-.9-32.9.1-.1 14.4-.2 31.6-.2h31.3l.3 17.8zm-2.8 48.1c1.4.1 2.4.6 2.3 1.1 0 .6-.4 5.9-.7 12-.4 6-.9 14.6-1.2 19-.4 4.4-.7 9.4-.8 11.2-.1 4.2-.7 4.6-6.9 4.9-2.8.1-13.3.5-23.2.9-9.9.4-19.3.8-21 .9-2.7.1-3-.2-3.1-3.4-.1-1.9-.5-10.7-.9-19.5-.3-8.8-.8-18.9-.9-22.4l-.3-6.3 27.1.7c14.9.3 28.2.8 29.6.9z"/></svg>